# xmcd
#
# Track frame offsets: 
#        152
#        34481
#        69342
#        92072
#        118655
#        151613
#        170477
#        202314
#        216106
#        247698
#        266991
#        316991
#
# Disc length: 4416 seconds
#
# Revision: 1
# Processed by: cddbd v1.5.2PL0 Copyright (c) Steve Scherf et al.
# Submitted via: ExactAudioCopyFreeDBPlugin 1.0
#
DISCID=a9113e0c
DTITLE=Eberhard Weber - Stages Of A long Journey
DYEAR=2005
DGENRE=Jazz
TTITLE0=Silent Feet
TTITLE1=Syndrome
TTITLE2=Yesterdays
TTITLE3=Seven Movements
TTITLE4=The Colours of Chloë
TTITLE5=Piano Transition
TTITLE6=Maurizius
TTITLE7=Percussion Transition
TTITLE8=Yellow Fields
TTITLE9=Hang Around
TTITLE10=The Last Stage Of A Long Journey
TTITLE11=Air
EXTD=YEAR: 2005
EXTT0=
EXTT1=
EXTT2=
EXTT3=
EXTT4=
EXTT5=
EXTT6=
EXTT7=
EXTT8=
EXTT9=
EXTT10=
EXTT11=
PLAYORDER=
